<svg xmlns="http://www.w3.org/2000/svg" width="481" height="323" viewBox="0 0 481 323">
  <g id="Group_709" data-name="Group 709" transform="translate(2662 9078)">
    <g id="Group_708" data-name="Group 708">
      <path id="Path_2056" data-name="Path 2056" d="M428.483.315a27.667,27.667,0,0,0-1.345,2.519c-.6,1.212-2.882,5.854-5.08,10.315s-4.234,8.609-4.523,9.217a4.538,4.538,0,0,1-.71,1.188.394.394,0,0,0-.184.34c0,.142-1.4,3.092-3.106,6.554s-4.924,10-7.147,14.53c-3.68,7.5-5.068,10.293-5.7,11.492-.231.436-5.382,11.025-6.126,12.595a6.887,6.887,0,0,1-.531.983,6.852,6.852,0,0,0-.523.983,29.172,29.172,0,0,1-2.242,4.383.482.482,0,0,0-.184.414,31.353,31.353,0,0,1-1.721,3.682,30.008,30.008,0,0,0-1.721,3.7c0,.194-.085.353-.19.353a7.673,7.673,0,0,0-1.045,1.963,8,8,0,0,1-1.038,1.966c-.1,0-.185.126-.185.276s-1.887,4.1-4.194,8.787-4.381,8.9-4.609,9.374a6.722,6.722,0,0,1-.541.983c-.142.138-1.4,2.762-2.1,4.363-.248.574-.541,1.044-.65,1.044s-.2.2-.2.445a1.854,1.854,0,0,1-.361.922,1.877,1.877,0,0,0-.368.887c0,.225-.091.446-.193.491a34.024,34.024,0,0,0-2.519,5.107.246.246,0,0,1-.227.259c-.124,0-.3.332-.388.738s-.263.737-.388.737a.252.252,0,0,0-.226.27c0,.149-2.268,4.845-5.039,10.437s-5.039,10.287-5.039,10.436c0,.459-.418.041-.925-.926-.266-.507-.846-1.586-1.289-2.4-1.27-2.327-2.685-4.994-3.781-7.128-.556-1.082-1.066-2.022-1.134-2.089a13.343,13.343,0,0,1-.737-1.352,13.358,13.358,0,0,0-.737-1.352c-.127-.126-1.727-3.146-3.062-5.776-.412-.811-.8-1.53-.871-1.6-.2-.2-2.559-4.62-4.72-8.848a11.344,11.344,0,0,0-.688-1.229c-.136-.136-.815-1.415-2.608-4.916-.657-1.284-1.252-2.39-1.322-2.457a12.7,12.7,0,0,1-.74-1.352,13.046,13.046,0,0,0-.738-1.352c-.126-.126-1.727-3.146-3.061-5.776a18.069,18.069,0,0,0-.872-1.6,13.282,13.282,0,0,1-.737-1.352,13.308,13.308,0,0,0-.737-1.352c-.124-.124-.581-.985-2.67-5.039-.627-1.217-1.2-2.267-1.264-2.335a12.639,12.639,0,0,1-.717-1.352,9.806,9.806,0,0,0-.737-1.352c-.079-.068-.641-1.118-1.249-2.335s-1.162-2.267-1.229-2.335a13.009,13.009,0,0,1-.738-1.352,12.391,12.391,0,0,0-.741-1.352,14.841,14.841,0,0,1-.8-1.475c-.371-.743-1.114-2.126-1.651-3.072s-1.041-1.886-1.121-2.089-.252-.567-.383-.81c-.384-.716-1.693-3.134-2.554-4.72-.441-.811-1.352-2.525-2.025-3.81-1.19-2.27-2.2-4.138-3.182-5.9-.265-.473-1.027-1.911-1.693-3.2s-1.28-2.39-1.363-2.458a2.224,2.224,0,0,1-.34-.737,2.2,2.2,0,0,0-.341-.738,5.811,5.811,0,0,1-.606-.983c-.251-.473-.775-1.432-1.164-2.131-1.434-2.572-1.945-3.6-1.945-3.927,0-.183-.085-.332-.188-.332a3.818,3.818,0,0,1-.79-1.29,11.621,11.621,0,0,0-.734-1.413,10.184,10.184,0,0,1-.7-1.229c-.971-1.881-2.607-4.957-3.594-6.759-1.294-2.363-3.274-6.091-4.178-7.865-.413-.811-.807-1.53-.874-1.6a13.01,13.01,0,0,1-.738-1.352,13.079,13.079,0,0,0-.737-1.352c-.124-.124-.58-.985-2.67-5.039-.627-1.217-1.2-2.267-1.263-2.335-.14-.14-1.073-1.864-2.229-4.117L281.38.492H0V43.258H254.308l6.711,13.334c3.691,7.333,7.212,14.329,7.825,15.546s1.292,2.6,1.512,3.072a6.683,6.683,0,0,0,.522.983c.067.067,2.5,4.879,5.407,10.692s5.36,10.625,5.45,10.694a2.08,2.08,0,0,1,.334.8c.093.37.268.673.388.673s.219.157.219.349a6.026,6.026,0,0,0,1.012,2.109,2.215,2.215,0,0,1,.34.737,2.155,2.155,0,0,0,.345.738,21.8,21.8,0,0,1,1.745,3.681.237.237,0,0,0,.219.251c.12,0,.295.3.388.674a2.075,2.075,0,0,0,.335.8,19.47,19.47,0,0,1,1.762,3.622.411.411,0,0,0,.184.355c.173.076,2.454,4.575,16.5,32.525,3.057,6.083,5.633,11.117,5.725,11.186a2.052,2.052,0,0,1,.337.8c.093.37.267.673.388.673s.219.132.219.293a18.892,18.892,0,0,0,1.761,3.642,2.062,2.062,0,0,1,.336.8c.093.37.267.674.388.674a.246.246,0,0,1,.219.265,54.322,54.322,0,0,0,2.79,5.731,6.105,6.105,0,0,1,.651,1.537c0,.182.1.332.22.332s.3.3.388.673a2.056,2.056,0,0,0,.336.8c.092.069,2.1,4,4.466,8.728s4.383,8.639,4.484,8.684a.374.374,0,0,1,.184.321,9.244,9.244,0,0,0,.708,1.639c2.149,4.25,2.762,5.469,3.42,6.807.4.811,1.03,2.083,1.4,2.826s.857,1.739,1.077,2.212a6.449,6.449,0,0,0,.525.983,8.783,8.783,0,0,1,.615,1.165l.488,1.042,20.567,0,20.567,0,8.622-17.286c4.743-9.507,8.623-17.406,8.623-17.553a.4.4,0,0,1,.184-.35c.231-.1,7.927-15.516,7.927-15.876a.4.4,0,0,1,.191-.346c.1-.045,1.775-3.289,3.711-7.21,3.055-6.184,4.4-8.874,7.479-14.993.34-.675,2.785-5.57,5.433-10.876,4.949-9.919,5.238-10.493,5.594-11.121a8.1,8.1,0,0,0,.363-.738c.085-.2,11.975-24.047,26.423-52.988S478.584,4.623,478.584,4.465a.26.26,0,0,1,.219-.287c.12,0,.295-.3.388-.673a2.082,2.082,0,0,1,.334-.8A5.3,5.3,0,0,0,480.55.472c0-.462-.529-.472-25.9-.472C433.873,0,428.693.062,428.483.315ZM0,144.645v63.291H221.471V158.778H45.966V123.631H205.248V81.355H0Zm.359,100.22c-.064.169-.088,17.672-.054,38.9l.063,38.588,27.469.063,27.469.062V309.448l-20.34-.063-20.34-.063-.064-10.015L14.5,289.291H50.39V276.51H14.5V257.093h40.8V244.558H27.891C6.185,244.558.452,244.622.359,244.865Zm346.227.308a24.238,24.238,0,0,0,.985,3.629c.541,1.653,1.163,3.615,1.382,4.358a16.855,16.855,0,0,0,.6,1.752,6.83,6.83,0,0,1,.373,1.329,6.827,6.827,0,0,0,.507,1.566,3.408,3.408,0,0,1,.334,1.314c0,.371.112.675.247.675s.246.179.246.4a16.88,16.88,0,0,0,.988,3.3,7.537,7.537,0,0,1,.355,1.412,2.71,2.71,0,0,0,.378,1.159,2.536,2.536,0,0,1,.369,1.106,2.4,2.4,0,0,0,.39,1.119.866.866,0,0,1,.224.645,17.376,17.376,0,0,0,1,3.52c.209.545,1.491,4.65,2.111,6.76.218.743.481,1.573.584,1.843.475,1.254,1.711,5.347,1.711,5.669a2.047,2.047,0,0,0,.228.786,20.527,20.527,0,0,1,.769,2.27c.3,1.014.621,2.065.72,2.335s.359,1.1.577,1.844c.537,1.833,1.9,6.152,2.123,6.759a15.705,15.705,0,0,1,.992,3.5c0,.3.1.553.217.553s.3.415.387.922a27.03,27.03,0,0,0,.731,2.642c.31.947.759,2.384,1,3.2s.519,1.7.618,1.966.428,1.321.73,2.335.666,2.23.807,2.7c.854,2.854,1.093,3.319,1.926,3.748.758.39,1.838.43,11.7.43,10.62,0,11.737-.071,12.465-.8a13.814,13.814,0,0,0,1.507-3.993c.443-1.553,1.405-4.686,1.984-6.46a6.965,6.965,0,0,0,.344-1.537c0-.265.1-.483.218-.483s.292-.495.383-1.1a2.714,2.714,0,0,1,.4-1.243,1.079,1.079,0,0,0,.231-.768,4.315,4.315,0,0,1,.337-1.4c.185-.426.532-1.438.771-2.249s.516-1.7.613-1.966.375-1.155.616-1.966c.9-3.031,1.186-3.946,1.367-4.425.1-.27.35-1.044.552-1.72,1.265-4.229,1.954-6.452,2.136-6.882.114-.27.4-1.155.627-1.966.4-1.407,1.237-4.123,2.427-7.865.3-.947.745-2.385.988-3.2s.594-1.892.78-2.4a5.532,5.532,0,0,0,.339-1.413c0-.268.1-.487.215-.487s.285-.447.373-.994a6.165,6.165,0,0,1,.377-1.413,16.441,16.441,0,0,0,.653-2.017,10.731,10.731,0,0,1,.627-1.856,4.48,4.48,0,0,0,.357-1.29c.091-.568.261-1.033.379-1.033s.215-.287.215-.638a4.4,4.4,0,0,1,.33-1.414c.182-.426.529-1.438.771-2.249s.683-2.249.979-3.195.735-2.384.976-3.2.588-1.862.771-2.335a7.512,7.512,0,0,0,.4-1.475l.071-.614-7.62-.069c-4.191-.038-7.869-.008-8.173.066a.683.683,0,0,0-.553.552,6.258,6.258,0,0,1-.343,1.409c-.188.545-.521,1.6-.74,2.343s-.678,2.292-1.019,3.441-.8,2.7-1.011,3.441a16.928,16.928,0,0,1-.574,1.73,7.232,7.232,0,0,0-.36,1.412,2.584,2.584,0,0,1-.4,1.172.918.918,0,0,0-.223.678,7.132,7.132,0,0,1-.364,1.644c-.2.608-.655,2.1-1.008,3.318s-.8,2.658-.988,3.2a6.212,6.212,0,0,0-.345,1.4,4.3,4.3,0,0,1-.339,1.22c-.186.444-.518,1.444-.737,2.221-.894,3.17-1.214,4.263-1.382,4.731s-.461,1.471-1.382,4.732a17.384,17.384,0,0,1-.585,1.791,7.318,7.318,0,0,0-.359,1.412,2.608,2.608,0,0,1-.4,1.173.91.91,0,0,0-.223.677,13.985,13.985,0,0,1-.984,3.374A7.236,7.236,0,0,0,389,293.17a2.6,2.6,0,0,1-.4,1.173,1.066,1.066,0,0,0-.224.755,2.9,2.9,0,0,1-.289,1.153,6.64,6.64,0,0,0-.479,1.4c-.105.473-.366,1.439-.582,2.148-.4,1.328-.69,2.3-1.6,5.471-.967,3.351-1.031,3.441-2.454,3.441-1.163,0-1.257-.048-1.572-.8-.184-.439-.523-1.462-.754-2.273-.8-2.815-1.2-4.188-1.734-5.9-.575-1.86-1.169-3.884-1.768-6.022a16.473,16.473,0,0,0-.562-1.729,6.68,6.68,0,0,1-.353-1.229,8.768,8.768,0,0,0-.373-1.343,18.8,18.8,0,0,1-.995-3.578.765.765,0,0,0-.225-.587,2.608,2.608,0,0,1-.4-1.173,7.341,7.341,0,0,0-.359-1.412,18.891,18.891,0,0,1-.611-1.853c-.233-.811-.579-1.921-.767-2.466a6.222,6.222,0,0,1-.343-1.416,2.151,2.151,0,0,0-.232-.853,14.213,14.213,0,0,1-.643-1.9c-.226-.811-.553-1.917-.727-2.458s-.5-1.7-.732-2.581a16.729,16.729,0,0,0-.608-1.974,6.3,6.3,0,0,1-.36-1.229,8.9,8.9,0,0,0-.373-1.344c-.113-.27-.448-1.321-.746-2.335s-.707-2.4-.912-3.072-.492-1.754-.64-2.4-.358-1.168-.467-1.168-.2-.274-.2-.609a5.668,5.668,0,0,0-.34-1.537c-.187-.509-.531-1.645-.765-2.524s-.507-1.819-.608-2.089-.377-1.155-.612-1.966a18.034,18.034,0,0,0-.614-1.844c-.159-.314-1.356-.378-8.088-.433l-7.9-.065Z" transform="translate(-2662 -9078)" fill="#d0021b" fill-rule="evenodd"/>
      <path id="Path_2057" data-name="Path 2057" d="M428.483.315a27.667,27.667,0,0,0-1.345,2.519c-.6,1.212-2.882,5.854-5.08,10.315s-4.234,8.609-4.523,9.217a4.538,4.538,0,0,1-.71,1.188.394.394,0,0,0-.184.34c0,.142-1.4,3.092-3.106,6.554s-4.924,10-7.147,14.53c-3.68,7.5-5.068,10.293-5.7,11.492-.231.436-5.382,11.025-6.126,12.595a6.887,6.887,0,0,1-.531.983,6.852,6.852,0,0,0-.523.983,29.172,29.172,0,0,1-2.242,4.383.482.482,0,0,0-.184.414,31.353,31.353,0,0,1-1.721,3.682,30.008,30.008,0,0,0-1.721,3.7c0,.194-.085.353-.19.353a7.673,7.673,0,0,0-1.045,1.963,8,8,0,0,1-1.038,1.966c-.1,0-.185.126-.185.276s-1.887,4.1-4.194,8.787-4.381,8.9-4.609,9.374a6.722,6.722,0,0,1-.541.983c-.142.138-1.4,2.762-2.1,4.363-.248.574-.541,1.044-.65,1.044s-.2.2-.2.445a1.854,1.854,0,0,1-.361.922,1.877,1.877,0,0,0-.368.887c0,.225-.091.446-.193.491a34.024,34.024,0,0,0-2.519,5.107.246.246,0,0,1-.227.259c-.124,0-.3.332-.388.738s-.263.737-.388.737a.252.252,0,0,0-.226.27c0,.149-2.268,4.845-5.039,10.437s-5.039,10.287-5.039,10.436c0,.459-.418.041-.925-.926-.266-.507-.846-1.586-1.289-2.4-1.27-2.327-2.685-4.994-3.781-7.128-.556-1.082-1.066-2.022-1.134-2.089a13.343,13.343,0,0,1-.737-1.352,13.358,13.358,0,0,0-.737-1.352c-.127-.126-1.727-3.146-3.062-5.776-.412-.811-.8-1.53-.871-1.6-.2-.2-2.559-4.62-4.72-8.848a11.344,11.344,0,0,0-.688-1.229c-.136-.136-.815-1.415-2.608-4.916-.657-1.284-1.252-2.39-1.322-2.457a12.7,12.7,0,0,1-.74-1.352,13.046,13.046,0,0,0-.738-1.352c-.126-.126-1.727-3.146-3.061-5.776a18.069,18.069,0,0,0-.872-1.6,13.282,13.282,0,0,1-.737-1.352,13.308,13.308,0,0,0-.737-1.352c-.124-.124-.581-.985-2.67-5.039-.627-1.217-1.2-2.267-1.264-2.335a12.639,12.639,0,0,1-.717-1.352,9.806,9.806,0,0,0-.737-1.352c-.079-.068-.641-1.118-1.249-2.335s-1.162-2.267-1.229-2.335a13.009,13.009,0,0,1-.738-1.352,12.391,12.391,0,0,0-.741-1.352,14.841,14.841,0,0,1-.8-1.475c-.371-.743-1.114-2.126-1.651-3.072s-1.041-1.886-1.121-2.089-.252-.567-.383-.81c-.384-.716-1.693-3.134-2.554-4.72-.441-.811-1.352-2.525-2.025-3.81-1.19-2.27-2.2-4.138-3.182-5.9-.265-.473-1.027-1.911-1.693-3.2s-1.28-2.39-1.363-2.458a2.224,2.224,0,0,1-.34-.737,2.2,2.2,0,0,0-.341-.738,5.811,5.811,0,0,1-.606-.983c-.251-.473-.775-1.432-1.164-2.131-1.434-2.572-1.945-3.6-1.945-3.927,0-.183-.085-.332-.188-.332a3.818,3.818,0,0,1-.79-1.29,11.621,11.621,0,0,0-.734-1.413,10.184,10.184,0,0,1-.7-1.229c-.971-1.881-2.607-4.957-3.594-6.759-1.294-2.363-3.274-6.091-4.178-7.865-.413-.811-.807-1.53-.874-1.6a13.01,13.01,0,0,1-.738-1.352,13.079,13.079,0,0,0-.737-1.352c-.124-.124-.58-.985-2.67-5.039-.627-1.217-1.2-2.267-1.263-2.335-.14-.14-1.073-1.864-2.229-4.117L281.38.492H0V43.258H254.308l6.711,13.334c3.691,7.333,7.212,14.329,7.825,15.546s1.292,2.6,1.512,3.072a6.683,6.683,0,0,0,.522.983c.067.067,2.5,4.879,5.407,10.692s5.36,10.625,5.45,10.694a2.08,2.08,0,0,1,.334.8c.093.37.268.673.388.673s.219.157.219.349a6.026,6.026,0,0,0,1.012,2.109,2.215,2.215,0,0,1,.34.737,2.155,2.155,0,0,0,.345.738,21.8,21.8,0,0,1,1.745,3.681.237.237,0,0,0,.219.251c.12,0,.295.3.388.674a2.075,2.075,0,0,0,.335.8,19.47,19.47,0,0,1,1.762,3.622.411.411,0,0,0,.184.355c.173.076,2.454,4.575,16.5,32.525,3.057,6.083,5.633,11.117,5.725,11.186a2.052,2.052,0,0,1,.337.8c.093.37.267.673.388.673s.219.132.219.293a18.892,18.892,0,0,0,1.761,3.642,2.062,2.062,0,0,1,.336.8c.093.37.267.674.388.674a.246.246,0,0,1,.219.265,54.322,54.322,0,0,0,2.79,5.731,6.105,6.105,0,0,1,.651,1.537c0,.182.1.332.22.332s.3.3.388.673a2.056,2.056,0,0,0,.336.8c.092.069,2.1,4,4.466,8.728s4.383,8.639,4.484,8.684a.374.374,0,0,1,.184.321,9.244,9.244,0,0,0,.708,1.639c2.149,4.25,2.762,5.469,3.42,6.807.4.811,1.03,2.083,1.4,2.826s.857,1.739,1.077,2.212a6.449,6.449,0,0,0,.525.983,8.783,8.783,0,0,1,.615,1.165l.488,1.042,20.567,0,20.567,0,8.622-17.286c4.743-9.507,8.623-17.406,8.623-17.553a.4.4,0,0,1,.184-.35c.231-.1,7.927-15.516,7.927-15.876a.4.4,0,0,1,.191-.346c.1-.045,1.775-3.289,3.711-7.21,3.055-6.184,4.4-8.874,7.479-14.993.34-.675,2.785-5.57,5.433-10.876,4.949-9.919,5.238-10.493,5.594-11.121a8.1,8.1,0,0,0,.363-.738c.085-.2,11.975-24.047,26.423-52.988S478.584,4.623,478.584,4.465a.26.26,0,0,1,.219-.287c.12,0,.295-.3.388-.673a2.082,2.082,0,0,1,.334-.8A5.3,5.3,0,0,0,480.55.472c0-.462-.529-.472-25.9-.472C433.873,0,428.693.062,428.483.315ZM328.765,234.137a10.235,10.235,0,0,0-4.032,2.435,5.246,5.246,0,0,0-1.007,1.307,3.424,3.424,0,0,1-.367.936,8.467,8.467,0,0,0,.138,5.411,8.969,8.969,0,0,0,3.575,3.683c1.451.7,5.507.654,6.855-.07a8.425,8.425,0,0,0,3.388-3.485,8.106,8.106,0,0,0,0-5.987c-.643-1.353-1.939-2.9-2.428-2.9-.189,0-.344-.094-.344-.209C334.541,234.611,330.222,233.776,328.765,234.137ZM68.641,281.61l.062,40.739,6.821.066,6.821.065V240.871H68.578Zm95.126,0,.062,40.739,6.391.069c3.515.038,6.64.009,6.944-.066l.553-.135V296.173h5.013c4.178,0,5.036.06,5.151.36.145.378,4.093,6.063,4.358,6.276a9.23,9.23,0,0,1,.775,1.106,15.527,15.527,0,0,0,1.143,1.574,2.045,2.045,0,0,1,.521.922c0,.182.083.331.184.331a5.114,5.114,0,0,1,1.045,1.288c.473.708.946,1.4,1.051,1.536.233.3,4.27,6,4.615,6.516.228.338.783,1.12,3.552,5.005l.983,1.379,7.681,0c7.519,0,7.682-.007,7.682-.489,0-.27-.1-.491-.229-.491s-.307-.249-.4-.553a1.9,1.9,0,0,0-.33-.676c-.087-.068-.708-.952-1.38-1.966a15.013,15.013,0,0,0-1.408-1.926.368.368,0,0,1-.184-.317,5.7,5.7,0,0,0-1.291-1.895.369.369,0,0,1-.184-.317,7.413,7.413,0,0,0-.983-1.567,11.523,11.523,0,0,1-.983-1.457,14.127,14.127,0,0,0-1.782-2.558.384.384,0,0,1-.185-.333,4.1,4.1,0,0,0-.737-1.182,5.244,5.244,0,0,1-.738-1.091,1.039,1.039,0,0,0-.258-.456c-.143-.163-.943-1.347-1.78-2.632a21.616,21.616,0,0,0-1.708-2.416.476.476,0,0,1-.186-.41.477.477,0,0,0-.185-.41,5.7,5.7,0,0,1-1.29-1.895.368.368,0,0,0-.189-.317,8.081,8.081,0,0,1-1.04-1.434,18.5,18.5,0,0,0-1.1-1.615,7.772,7.772,0,0,1-.737-1.168c-.268-.5-.572-.9-.676-.9s-.19-.118-.19-.263a3.314,3.314,0,0,0-.615-1.067c-.754-.989-.76-1.218-.061-2.191.3-.424.664-.965.8-1.2s.914-1.4,1.731-2.586,1.976-2.873,2.575-3.752a11.66,11.66,0,0,1,1.28-1.679.477.477,0,0,0,.19-.413,1.151,1.151,0,0,1,.311-.656c.171-.178.862-1.154,1.536-2.168a15.182,15.182,0,0,1,1.41-1.925.514.514,0,0,0,.184-.438.592.592,0,0,1,.369-.5c.2-.078.369-.242.369-.365a27.216,27.216,0,0,1,2.387-3.547,11.489,11.489,0,0,0,.982-1.584,4.011,4.011,0,0,1,.594-.825,18.209,18.209,0,0,0,1.352-1.967c.511-.83,1.045-1.644,1.186-1.808a3.708,3.708,0,0,0,.982-1.5c.094-.294.253-.535.354-.535a2.8,2.8,0,0,0,.737-.983l.552-.983-7.943.006-7.943.006-1.47,2.268a20.262,20.262,0,0,1-1.659,2.349.361.361,0,0,0-.189.311,26.64,26.64,0,0,1-2.387,3.553,11.232,11.232,0,0,0-.981,1.584,2.913,2.913,0,0,1-.428.646,29.943,29.943,0,0,0-2.348,3.41c-.8,1.216-1.575,2.346-1.714,2.509a1.053,1.053,0,0,0-.254.532.367.367,0,0,1-.2.318c-.108.045-1.275,1.713-2.594,3.707l-2.4,3.626h-10.3V240.871H163.705ZM234.253,251.8v7.255h-9.1l.066,5.96.066,5.961,4.483.067,4.483.067.07,19.842c.069,19.565.187,22.592.917,23.528a3.582,3.582,0,0,1,.362,1.045c.094.439.26.8.37.8s.27.281.356.624c.231.92,3.03,3.6,4.445,4.248.676.311,1.421.67,1.655.8a2.275,2.275,0,0,0,.91.23,11.776,11.776,0,0,1,1.9.369,26.751,26.751,0,0,0,7.965.127c.735-.134,2.387-.349,3.671-.48,1.977-.2,4.867-.609,8.261-1.165l.763-.125.158-2.227c.087-1.225.158-3.546.158-5.159v-2.931l-7.189.081c-6.66.075-7.262.047-8.167-.387a3.585,3.585,0,0,1-2.146-2.145l-.564-1.074-.071-18-.07-18,8.673-.065,8.674-.064.066-5.961.066-5.96H248.025l-.065-7.189-.065-7.189-6.821-.066-6.821-.065Zm72.144,6.682a31.671,31.671,0,0,0-6.133,1.6.977.977,0,0,1-.552.2c-.7,0-8.24,3.72-9.035,4.454-.531.492-.626.077-.626-2.733v-2.95h-6.857c-6.025,0-6.874.047-7.005.389-.082.214-.149,14.349-.149,31.411,0,23.8.068,31.092.295,31.318s2.114.295,7.005.295h6.711V274.88l1.413-.562c.777-.31,1.762-.717,2.188-.906a4.135,4.135,0,0,1,1.048-.343,1.826,1.826,0,0,0,.7-.248,29.787,29.787,0,0,1,3.377-1.018c2.866-.749,3.134-.774,9.525-.887l6.575-.116V258.322l-3.871.037C308.876,258.379,306.8,258.436,306.4,258.486Zm132.12.321c-1.149.25-2.472.573-2.939.719a18,18,0,0,0-4.189,2.052c0,.1-.112.185-.249.185-.5,0-2.791,2.383-3.841,4a13.138,13.138,0,0,0-2.034,4.618,5.323,5.323,0,0,1-.338,1.126,29.564,29.564,0,0,0-.547,3.478c-.547,4.478-.4,29.781.193,32.86.517,2.7.9,4.135,1.176,4.412a1.089,1.089,0,0,1,.232.671c0,1.184,3.5,5.652,5.3,6.768a22.535,22.535,0,0,0,7.979,2.885c3.033.552,23.865.556,26.7,0,4.235-.821,6.232-1.618,8.831-3.523A14.05,14.05,0,0,0,478.5,314.7a1.982,1.982,0,0,1,.313-.59c.422-.368,1.6-4.372,1.985-6.759.365-2.253.2-32.8-.185-34.779a27.744,27.744,0,0,0-1.77-5.407,1.615,1.615,0,0,1-.343-.59,14.061,14.061,0,0,0-3.707-4.361,16.271,16.271,0,0,0-5.548-2.756c-.879-.241-1.985-.564-2.458-.716-.582-.188-4.954-.3-13.519-.335C441.752,258.36,440.418,258.395,438.517,258.807Zm-324.709.239a21.422,21.422,0,0,0-8.188,2.231,14.69,14.69,0,0,0-2.8,1.592c-.171.135-.739.577-1.263.983a12.113,12.113,0,0,0-1.789,1.825c-.46.6-.954,1.207-1.1,1.352a29.753,29.753,0,0,0-2.726,6.04c-.423,1.486-.454,2.815-.453,19.048,0,17.2.009,17.479.537,19.343,1.986,7,5.507,9.844,13.769,11.117,2.907.448,11.96.517,17.893.137,2.028-.13,5.07-.3,6.76-.369s5.191-.31,7.78-.529l4.708-.4.167-3.467c.092-1.907.131-4.131.086-4.942l-.082-1.474-16.961-.127c-13.3-.1-17.173-.2-17.944-.457a4.158,4.158,0,0,1-2.487-2.482c-.074-.342-.236-.942-.36-1.334a32.38,32.38,0,0,1-.225-4.705c0-3.414.056-4.014.389-4.142.213-.082,9.788-.149,21.276-.149h20.888l-.1-12.228c-.1-12.647-.12-12.869-1.16-15.423a21.828,21.828,0,0,0-2.394-4.466,2.78,2.78,0,0,1-.555-.74,14.26,14.26,0,0,0-2.239-2.172,13.86,13.86,0,0,0-3.526-2.085.625.625,0,0,1-.49-.226,6.428,6.428,0,0,0-1.8-.708c-.911-.265-2.1-.616-2.64-.78C135.638,258.96,117.179,258.747,113.808,259.046Zm209.786.32c-.065.169-.089,14.41-.054,31.645l.063,31.338,6.821.066,6.821.065V259.059h-6.767C325.29,259.059,323.683,259.131,323.594,259.366ZM131.1,270.243a9.163,9.163,0,0,1,3.576.967c1.024.646,1.992,1.735,1.992,2.24a.431.431,0,0,0,.249.4c.531.177.841,3.165.849,8.192l.008,5.162-14.318.063-14.318.064.008-4.611c.014-7.55.888-10.029,4.17-11.819C115.032,269.963,126.176,269.552,131.1,270.243Zm331.186.07a6.438,6.438,0,0,1,4.847,5.46c.314,1.695.346,27.118.037,29a6.541,6.541,0,0,1-4.2,5.539c-1.143.449-1.862.483-10.2.483-9.838,0-10.308-.056-12.213-1.456a6.383,6.383,0,0,1-1.721-2.108l-.692-1.352V290.348c0-12.1.068-15.6.308-15.841a1.173,1.173,0,0,0,.307-.715,6.31,6.31,0,0,1,2.356-2.689c.191,0,.348-.1.348-.218s.636-.382,1.413-.584C444.7,269.829,460.626,269.839,462.286,270.313Z" transform="translate(-2662 -9078)" fill="#0a18a3" fill-rule="evenodd"/>
    </g>
  </g>
</svg>
